<?xml version="1.0" encoding="UTF-8"?>
<!DOCTYPE svg PUBLIC "-//W3C//DTD SVG 1.1//EN" "http://www.w3.org/Graphics/SVG/1.1/DTD/svg11.dtd">
<!-- Creator: CorelDRAW X7 -->
<svg xmlns="http://www.w3.org/2000/svg" xml:space="preserve" width="4063px" height="3992px" version="1.1" style="shape-rendering:geometricPrecision; text-rendering:geometricPrecision; image-rendering:optimizeQuality; fill-rule:evenodd; clip-rule:evenodd"
viewBox="0 0 4063 3992"
 xmlns:xlink="http://www.w3.org/1999/xlink">
 <defs>
  <style type="text/css">
   <![CDATA[
    .fil1 {fill:black}
    .fil0 {fill:#FEFEFE}
    .fil2 {fill:#FFB800}
   ]]>
  </style>
 </defs>
 <g id="Camada_x0020_1">
  <metadata id="CorelCorpID_0Corel-Layer"/>
  <g id="duck-solid-logo-for-desktop-.svg">
   <path class="fil0" d="M2030 -4c1117,0 2023,893 2023,1994 0,1101 -906,1994 -2023,1994 -1117,0 -2023,-893 -2023,-1994 0,-1101 906,-1994 2023,-1994z"/>
   <path class="fil1" d="M4001 1540l0 0 0 0 0 0c3,12 6,23 8,35l1 4c3,13 5,26 8,40 2,13 5,26 7,39 2,14 4,27 6,40 2,14 4,27 6,40 1,14 3,27 5,40 1,14 2,27 3,40 2,14 3,27 4,41 0,13 1,27 2,40l0 1c1,12 1,24 1,36l0 4c1,16 1,33 1,50 0,1101 -906,1994 -2023,1994 -1011,0 -1849,-732 -1999,-1687l-1 -6 0 -4c-2,-8 -3,-15 -4,-23 -1,-7 -2,-14 -3,-22 -2,-16 -3,-32 -5,-49 -2,-16 -3,-33 -4,-49 -2,-16 -3,-33 -4,-49 0,-15 -1,-29 -2,-44 0,-10 0,-21 0,-32 -1,-9 -1,-18 -1,-27l0 -3c1,-1101 906,-1993 2023,-1993 960,0 1764,659 1971,1544z"/>
   <path class="fil0" d="M2160 2303c40,15 80,30 120,44 -1,45 -2,89 3,134 23,228 141,440 304,598 73,71 156,133 235,197l-1 2c-11,-3 -22,-7 -32,-10 -11,-4 -22,-7 -33,-11 -11,-4 -21,-9 -32,-13 -10,-4 -21,-9 -31,-14 -11,-4 -21,-9 -31,-14 -10,-6 -21,-11 -31,-16 -10,-6 -20,-11 -29,-17 -10,-6 -20,-12 -30,-18 -9,-7 -19,-13 -28,-20 -9,-6 -19,-13 -28,-20 -9,-7 -18,-14 -27,-21 -9,-7 -17,-14 -26,-22 -9,-8 -17,-15 -25,-23 -9,-8 -17,-16 -25,-24 -8,-8 -16,-17 -23,-25 -8,-8 -16,-17 -23,-26 -167,-200 -230,-424 -207,-681z"/>
   <path class="fil0" d="M2825 1862c21,14 41,32 62,47 42,33 84,66 127,97 180,134 366,225 583,277 -32,21 -73,34 -110,45 -180,56 -373,57 -559,30 -206,-32 -405,-93 -600,-169 -59,-23 -117,-50 -177,-74 67,1 163,18 226,7 26,-4 397,-229 448,-260z"/>
   <path class="fil0" d="M3851 2322c-5,49 -21,99 -33,146 -83,329 -262,642 -514,870 -376,342 -861,528 -1371,502 -15,-1 -30,-2 -45,-3 -15,-1 -30,-3 -46,-4 -15,-2 -30,-4 -45,-6 -15,-2 -30,-4 -45,-6 -15,-3 -30,-5 -45,-8 -15,-3 -30,-5 -45,-9 -15,-3 -30,-6 -45,-9 -15,-4 -29,-7 -44,-11 -15,-4 -30,-8 -44,-12 -15,-4 -30,-9 -44,-13 -15,-5 -29,-10 -44,-14 -14,-5 -28,-10 -43,-16 -14,-5 -28,-10 -42,-16 -15,-6 -29,-11 -43,-17 -14,-6 -28,-12 -41,-19 -14,-6 -28,-12 -42,-19 -14,-6 -27,-13 -41,-20 -13,-7 -27,-14 -40,-22 -14,-7 -27,-14 -40,-22 -13,-7 -26,-15 -39,-23 -13,-8 -26,-16 -39,-24 -13,-9 -26,-17 -38,-26 -13,-8 -25,-17 -38,-26 -12,-9 -24,-18 -37,-27 -12,-9 -24,-18 -36,-28 -12,-9 -24,-19 -35,-28 -12,-10 -24,-20 -35,-30 -12,-10 -23,-20 -34,-31 -11,-10 -22,-20 -33,-31 -11,-11 -22,-21 -33,-32 -11,-11 -21,-22 -32,-33 -10,-11 -20,-22 -30,-34 -11,-11 -20,-22 -30,-34 -10,-11 -20,-23 -29,-34 -10,-12 -19,-24 -28,-36 -9,-12 -18,-24 -27,-36 -9,-12 -18,-24 -27,-37 -8,-12 -17,-25 -25,-37 -8,-13 -16,-26 -24,-38 -8,-13 -16,-26 -24,-39 -8,-13 -15,-26 -23,-39 -7,-13 -14,-27 -21,-40 -7,-13 -14,-27 -21,-40 -6,-14 -13,-27 -19,-41 -7,-14 -13,-27 -19,-41 -6,-14 -12,-28 -17,-42 -6,-14 -12,-28 -17,-42 -5,-14 -10,-28 -15,-42 -5,-15 -10,-29 -15,-43 -4,-15 -9,-29 -13,-43 -4,-15 -9,-29 -13,-44 -3,-15 -7,-29 -11,-44 -3,-14 -7,-29 -10,-44 -3,-15 -6,-29 -9,-44 -3,-15 -5,-30 -8,-45 -2,-15 -5,-29 -7,-44 -2,-15 -4,-30 -6,-45 -1,-15 -3,-30 -4,-45 -2,-15 -3,-30 -4,-45 -1,-15 -2,-30 -2,-45 -1,-15 -1,-31 -2,-46 0,-15 0,-30 0,-45 0,-15 1,-30 1,-45 1,-15 1,-30 2,-45 1,-15 2,-30 3,-46 1,-15 2,-30 4,-45 1,-15 3,-30 5,-45 2,-15 4,-30 6,-45 2,-15 4,-30 7,-45 3,-15 5,-30 8,-45 3,-15 7,-29 10,-44 3,-15 7,-30 10,-44 4,-15 8,-30 12,-44 4,-15 8,-29 13,-44 4,-14 9,-29 14,-43 5,-15 9,-29 15,-43 5,-14 10,-29 16,-43 5,-14 11,-28 17,-42 6,-14 12,-28 18,-42 6,-13 12,-27 19,-41 6,-13 13,-27 20,-41 7,-13 14,-26 21,-40 7,-13 15,-26 22,-39 8,-14 16,-27 24,-40 7,-13 15,-25 24,-38 8,-13 16,-25 25,-38 8,-13 17,-25 26,-37 9,-13 18,-25 27,-37 9,-12 18,-24 27,-36 10,-12 19,-23 29,-35 10,-12 20,-23 30,-35 10,-11 20,-22 30,-33 11,-11 21,-22 32,-33 10,-11 21,-22 32,-33 10,-10 21,-21 32,-31 12,-10 23,-20 34,-30 356,-319 840,-500 1318,-474 520,29 966,246 1313,634 281,315 439,736 458,1156 3,75 0,150 -4,225 -27,1 -55,0 -82,-2 7,-303 -22,-588 -144,-868 -17,-38 -36,-75 -56,-112 -9,-18 -18,-36 -28,-54 -9,-17 -19,-35 -30,-52 -10,-17 -20,-34 -31,-51 -11,-17 -23,-34 -34,-50 -12,-16 -24,-33 -36,-49 -12,-16 -24,-31 -37,-47 -13,-15 -26,-31 -39,-46 -13,-15 -27,-30 -41,-44 -8,-9 -16,-17 -24,-26 -9,-8 -17,-16 -26,-25 -8,-8 -17,-16 -25,-24 -9,-9 -17,-17 -26,-24 -9,-8 -18,-16 -27,-24 -9,-8 -18,-16 -27,-23 -9,-8 -18,-15 -27,-23 -10,-7 -19,-14 -28,-22 -10,-7 -19,-14 -29,-21 -9,-7 -19,-14 -28,-21 -10,-7 -20,-13 -30,-20 -9,-7 -19,-13 -29,-20 -10,-6 -20,-13 -30,-19 -10,-6 -20,-12 -31,-18 -10,-6 -20,-12 -30,-18 -11,-6 -21,-12 -31,-17 -11,-6 -21,-12 -32,-17 -10,-6 -21,-11 -31,-16 -11,-5 -22,-10 -32,-15 -11,-6 -22,-10 -33,-15 -11,-5 -21,-10 -32,-14 -11,-5 -22,-9 -33,-14 -11,-4 -22,-8 -33,-13 -12,-4 -23,-8 -34,-12 -11,-4 -22,-8 -33,-11 -12,-4 -23,-8 -34,-11 -12,-4 -23,-7 -34,-10 -12,-3 -23,-7 -35,-10 -11,-3 -23,-6 -34,-8 -12,-3 -23,-6 -35,-9 -11,-2 -23,-5 -34,-7 -12,-2 -24,-5 -35,-7 -78,-14 -158,-25 -237,-27 -102,-2 -207,-1 -309,12 -325,42 -635,185 -889,392 -42,34 -82,72 -122,110 -37,35 -70,74 -103,113 -8,9 -16,19 -24,29 -8,10 -16,19 -24,29 -7,10 -15,20 -22,30 -8,10 -15,20 -23,31 -7,10 -14,20 -21,31 -7,10 -14,20 -21,31 -7,10 -14,21 -20,32 -7,10 -13,21 -20,32 -6,11 -12,22 -18,33 -7,10 -13,22 -18,33 -6,11 -12,22 -18,33 -6,11 -11,22 -16,34 -6,11 -11,22 -16,34 -6,11 -11,23 -16,34 -4,12 -9,24 -14,35 -5,12 -9,24 -14,35 -4,12 -8,24 -13,36 -4,12 -8,23 -12,35 -4,12 -7,24 -11,36 -4,12 -7,24 -11,36 -3,12 -6,25 -9,37 -4,12 -7,24 -9,36 -3,13 -6,25 -9,37 -2,12 -5,25 -7,37 -2,12 -5,25 -7,37 -2,12 -4,25 -6,37 -1,13 -3,25 -5,38 -1,12 -2,25 -4,37 -1,13 -2,25 -3,38 -1,12 -2,25 -3,37 0,13 -1,25 -2,38 0,12 0,25 0,37 -5,224 30,465 111,673 25,65 57,127 88,188 66,130 159,268 259,373 343,356 773,571 1272,579 20,1 40,1 59,1 20,-1 40,-1 60,-2 19,-1 39,-2 59,-4 19,-1 39,-3 58,-6 20,-2 39,-4 59,-7 19,-3 39,-6 58,-10 20,-3 39,-7 58,-11 20,-4 39,-9 58,-14 19,-5 38,-10 57,-15 19,-6 38,-11 56,-17 19,-6 38,-13 56,-19 19,-7 37,-14 56,-21 18,-8 36,-15 54,-23 18,-8 36,-16 54,-25 18,-8 35,-17 53,-26 17,-9 35,-19 52,-28 118,-66 229,-143 327,-237 217,-210 366,-431 467,-717 17,-47 30,-95 42,-143 5,-19 12,-39 15,-58 15,-16 77,-49 99,-60z"/>
   <path class="fil2" d="M1839 771l4 -1c226,-6 445,85 609,239 185,175 300,435 307,690 -42,35 -97,61 -144,89 -64,39 -128,77 -193,114 -27,15 -55,33 -84,46 -12,6 -23,7 -36,7 -55,0 -113,-7 -168,-12 -196,-19 -369,-50 -513,-197 41,159 114,229 234,331 -13,2 -27,4 -40,5 -14,2 -27,2 -41,3 -13,0 -27,0 -41,0 -13,0 -27,-1 -40,-2 -137,-14 -253,-74 -341,-181 -46,-56 -72,-135 -77,-207 -94,131 -134,263 -136,423l-8 -18c-75,-186 -53,-385 25,-567 83,-193 245,-359 432,-455 26,-13 52,-23 79,-34 -230,7 -451,95 -614,259 33,-84 87,-166 148,-234 172,-191 383,-285 638,-298z"/>
   <path class="fil1" d="M2170 1309c57,-4 119,15 163,50 50,40 82,103 89,166 6,65 -11,132 -53,183 -42,51 -99,83 -165,89 -62,3 -120,-12 -169,-50 -50,-39 -82,-101 -89,-164 -1,-4 -1,-8 -1,-12 0,-5 -1,-9 -1,-13 0,-4 0,-8 0,-12 1,-4 1,-8 1,-12 0,-4 1,-8 1,-12 1,-4 2,-8 2,-12 1,-4 2,-8 3,-12 1,-4 2,-8 3,-12 1,-4 2,-8 4,-12 1,-4 2,-7 4,-11 1,-4 3,-8 5,-11 2,-4 3,-8 5,-11 2,-4 4,-7 6,-11 2,-3 4,-7 7,-10 2,-4 4,-7 7,-10 2,-4 4,-7 7,-10 43,-54 103,-83 171,-91z"/>
   <path class="fil0" d="M2094 1357c24,0 47,4 67,18 1,0 3,1 4,2 1,1 2,2 3,3 1,1 2,2 3,3 2,1 3,2 4,3 1,1 2,2 3,3 1,1 1,2 2,3 1,1 2,2 3,4 1,1 2,2 2,3 1,1 2,3 3,4 0,1 1,2 2,4 0,1 1,2 2,3 0,2 1,3 1,4 1,2 1,3 2,4 0,2 1,3 1,5 0,1 1,2 1,4 0,1 1,3 1,4 4,23 -1,49 -15,68 -16,22 -39,32 -65,36 -22,2 -43,-2 -61,-13 -2,-1 -3,-1 -4,-2 -2,-1 -3,-2 -4,-3 -1,-1 -3,-2 -4,-3 -1,-1 -2,-2 -3,-3 -1,-1 -2,-2 -3,-3 -2,-1 -3,-3 -4,-4 -1,-1 -2,-2 -3,-3 -1,-2 -1,-3 -2,-4 -1,-1 -2,-3 -3,-4 -1,-1 -2,-3 -2,-4 -1,-1 -2,-3 -2,-4 -1,-1 -2,-3 -2,-4 -1,-2 -2,-3 -2,-5 -1,-1 -1,-2 -2,-4 0,-1 -1,-3 -1,-4 0,-2 -1,-3 -1,-5 -5,-24 1,-49 15,-69 16,-22 38,-32 64,-37z"/>
   <path class="fil2" d="M3752 2382c-3,19 -10,39 -15,58 -12,48 -25,96 -42,143 -101,286 -250,507 -467,717 -98,94 -209,171 -327,237 -17,9 -35,19 -52,28 -18,9 -35,18 -53,26 -18,9 -36,17 -54,25 -18,8 -36,15 -54,23 -19,7 -37,14 -56,21 -18,6 -37,13 -56,19 -18,6 -37,11 -56,17 -19,5 -38,10 -57,15 -19,5 -38,10 -58,14 -19,4 -38,8 -58,11 -19,4 -39,7 -58,10 -20,3 -39,5 -59,7 -19,3 -39,5 -58,6 -20,2 -40,3 -59,4 -20,1 -40,1 -60,2 -19,0 -39,0 -59,-1 -499,-8 -929,-223 -1272,-579 -100,-105 -193,-243 -259,-373 -31,-61 -63,-123 -88,-188 -81,-208 -116,-449 -111,-673 0,-12 0,-25 0,-37 1,-13 2,-25 2,-38 1,-12 2,-25 3,-37 1,-13 2,-25 3,-38 2,-12 3,-25 4,-37 2,-13 4,-25 5,-38 2,-12 4,-25 6,-37 2,-12 5,-25 7,-37 2,-12 5,-25 7,-37 3,-12 6,-24 9,-37 2,-12 5,-24 9,-36 3,-12 6,-25 9,-37 4,-12 7,-24 11,-36 4,-12 7,-24 11,-36 4,-12 8,-23 12,-35 5,-12 9,-24 13,-36 5,-11 9,-23 14,-35 5,-11 10,-23 14,-35 5,-11 10,-23 16,-34 5,-12 10,-23 16,-34 5,-12 10,-23 16,-34 6,-11 12,-22 18,-33 5,-11 11,-23 18,-33 6,-11 12,-22 18,-33 7,-11 13,-22 20,-32 6,-11 13,-22 20,-32 7,-11 14,-21 21,-31 7,-11 14,-21 21,-31 8,-11 15,-21 23,-31 7,-10 15,-20 22,-30 8,-10 16,-19 24,-29 8,-10 16,-20 24,-29 33,-39 66,-78 103,-113 40,-38 80,-76 122,-110 254,-207 564,-350 889,-392 102,-13 207,-14 309,-12 79,2 159,13 237,27 11,2 23,5 35,7 11,2 23,5 34,7 12,3 23,6 35,9 11,2 23,5 34,8 12,3 23,7 35,10 11,3 22,6 34,10 11,3 22,7 34,11 11,3 22,7 33,11 11,4 22,8 34,12 11,5 22,9 33,13 11,5 22,9 33,14 11,4 21,9 32,14 11,5 22,9 33,15 10,5 21,10 32,15 10,5 21,10 31,16 11,5 21,11 32,17 10,5 20,11 31,17 10,6 20,12 30,18 11,6 21,12 31,18 10,6 20,13 30,19 10,7 20,13 29,20 10,7 20,13 30,20 9,7 19,14 28,21 10,7 19,14 29,21 9,8 18,15 28,22 9,8 18,15 27,23 9,7 18,15 27,23 9,8 18,16 27,24 9,7 17,15 26,24 8,8 17,16 25,24 9,9 17,17 26,25 8,9 16,17 24,26 14,14 28,29 41,44 13,15 26,31 39,46 13,16 25,31 37,47 12,16 24,33 36,49 11,16 23,33 34,50 11,17 21,34 31,51 11,17 21,35 30,52 10,18 19,36 28,54 20,37 39,74 56,112 122,280 151,565 144,868 -248,-25 -492,-139 -689,-288 -62,-46 -117,-99 -178,-146 -5,-60 -8,-120 -19,-180 -34,-201 -117,-402 -246,-560 -43,-53 -94,-102 -147,-147 -198,-170 -470,-251 -729,-231 -294,24 -549,153 -740,379 -90,105 -158,234 -201,365 -11,34 -17,70 -28,104 -77,2 -156,4 -233,1 5,-12 10,-24 15,-36 5,-13 11,-25 16,-37 6,-12 11,-24 17,-36 6,-12 12,-23 18,-35 6,-12 12,-24 19,-35 6,-12 12,-23 19,-35 7,-11 13,-23 20,-34 7,-11 14,-23 21,-34 8,-11 15,-22 22,-33 8,-11 15,-22 23,-32 8,-11 15,-22 23,-33 8,-10 16,-21 25,-31 8,-10 16,-21 25,-31 8,-10 17,-20 25,-30 9,-10 18,-20 27,-30 9,-10 18,-19 27,-29 9,-9 19,-19 28,-28 9,-9 19,-19 28,-28 10,-9 20,-18 30,-27 9,-9 19,-17 29,-26 11,-9 21,-17 31,-25 10,-9 21,-17 31,-25 10,-8 21,-16 32,-24 10,-8 21,-16 32,-23 11,-8 22,-16 33,-23 11,-7 22,-14 33,-22 11,-7 22,-14 34,-20 11,-7 23,-14 34,-20 12,-7 23,-13 35,-20 11,-6 23,-12 35,-18 12,-6 24,-12 36,-17 12,-6 24,-12 36,-17 424,-185 878,-185 1308,-16 216,86 414,224 577,389 31,32 62,64 91,99 6,7 23,33 32,36 -4,-16 -42,-58 -53,-72 -132,-165 -286,-312 -465,-424 -12,-8 -24,-15 -36,-22 -12,-8 -24,-15 -36,-21 -12,-7 -25,-14 -37,-21 -12,-6 -25,-13 -37,-19 -13,-6 -25,-12 -38,-18 -13,-6 -25,-12 -38,-18 -13,-5 -26,-11 -39,-16 -13,-6 -26,-11 -39,-16 -13,-5 -26,-10 -39,-14 -13,-5 -26,-10 -40,-14 -13,-4 -26,-9 -40,-13 -13,-4 -27,-8 -40,-11 -14,-4 -27,-8 -41,-11 -13,-3 -27,-7 -41,-10 -13,-3 -27,-6 -41,-8 -13,-3 -27,-6 -41,-8 -14,-2 -27,-4 -41,-7 -14,-2 -28,-3 -42,-5 -14,-2 -28,-3 -42,-5 -14,-1 -27,-2 -41,-3 -14,-1 -28,-2 -42,-3 -14,-1 -28,-1 -42,-1 -14,-1 -28,-1 -42,-1 -14,0 -28,0 -42,1 -14,0 -28,1 -42,1 -14,1 -28,2 -42,3 -14,1 -28,2 -42,3 -14,2 -28,3 -42,5 -13,2 -27,4 -41,6 -14,2 -28,4 -42,6 -13,3 -27,5 -41,8 -14,3 -27,6 -41,9 -13,3 -26,6 -39,9 -12,3 -25,7 -38,10 -13,4 -26,7 -38,11 -13,4 -26,8 -38,12 -13,4 -25,9 -38,13 -12,5 -25,9 -37,14 -13,5 -25,10 -37,15 -13,5 -25,10 -37,15 -12,6 -24,11 -36,17 -12,6 -24,11 -36,17 -12,6 -24,12 -35,19 -12,6 -24,12 -35,19 -12,6 -23,13 -35,20 -11,7 -22,14 -34,21 -11,7 -22,14 -33,21 -11,8 -22,15 -33,23 -11,8 -21,15 -32,23 -11,8 -21,16 -32,24 -10,8 -21,17 -31,25 -10,8 -20,17 -30,26 -10,8 -20,17 -30,26 -10,9 -20,18 -29,27 -10,9 -20,18 -29,28 -9,9 -19,19 -28,28 -9,10 -18,20 -27,29 -9,10 -18,20 -26,30 -9,10 -18,20 -26,31 -9,10 -17,20 -25,31 -8,10 -16,21 -24,31 -8,11 -16,22 -24,33 -7,11 -15,21 -22,32 -7,11 -15,23 -22,34 -104,167 -183,355 -219,550 126,-2 252,-2 378,-1 -5,87 -6,174 4,260 6,49 17,97 30,144 53,200 153,370 289,524 152,172 376,320 600,374 -165,-128 -281,-304 -363,-493 69,70 138,138 216,198 32,24 64,49 98,70 37,23 78,43 112,69 65,49 106,136 105,217 -1,55 -23,100 -62,138 -90,85 -247,110 -366,107 -276,-9 -527,-167 -711,-363 -137,-147 -226,-304 -307,-487 -31,-72 -60,-143 -83,-219 17,129 41,259 80,384 4,9 7,19 10,29 4,10 7,19 11,29 3,10 7,19 11,29 3,10 7,19 11,29 4,9 8,19 12,28 4,10 9,19 13,28 4,10 9,19 13,28 4,10 9,19 14,28 4,9 9,18 14,28 5,9 10,18 15,27 5,9 10,18 15,27 5,9 10,18 15,26 6,9 11,18 17,27 5,8 11,17 16,26 6,8 12,17 18,25 5,9 11,17 17,26 6,8 12,17 19,25 6,8 12,16 18,24 7,9 13,17 19,25 7,8 13,16 20,24 6,8 13,16 20,23 7,8 13,16 20,24 7,7 14,15 21,22 7,8 14,15 22,23 7,7 14,14 21,22 8,7 15,14 23,21 7,7 15,14 22,21 8,7 15,14 23,21 8,7 16,14 23,20 8,7 16,14 24,20 8,7 16,13 24,20 8,6 17,12 25,19 288,222 618,345 982,355 44,1 88,1 132,-1 43,-2 87,-5 131,-11 263,-34 498,-125 721,-268 62,-39 123,-80 176,-131 -56,-32 -115,-59 -170,-93 -40,-26 -79,-53 -116,-82 -37,-29 -73,-59 -108,-92 -33,-31 -66,-62 -96,-96 -84,-97 -140,-214 -175,-336 -14,-52 -24,-104 -24,-157 88,28 175,57 265,78 300,72 654,91 937,-54 33,-17 66,-36 99,-55z"/>
  </g>
 </g>
</svg>
