<?xml version="1.0" encoding="utf-8" ?>
<svg xmlns="http://www.w3.org/2000/svg" xmlns:xlink="http://www.w3.org/1999/xlink" width="1024" height="1024">
	<path d="M495.674 93.7136Q505.291 93.3415 514.916 93.4149Q524.54 93.4884 534.15 94.0072Q543.761 94.526 553.337 95.489Q562.913 96.4521 572.435 97.8573Q581.956 99.2625 591.402 101.107Q600.849 102.951 610.199 105.231Q619.55 107.511 628.785 110.221Q638.02 112.931 647.12 116.065C658.481 120.058 669.507 124.935 680.53 129.766Q687.759 132.866 694.86 136.251Q701.96 139.636 708.921 143.3Q715.881 146.964 722.691 150.901Q729.5 154.838 736.148 159.042Q742.796 163.246 749.273 167.711Q755.749 172.176 762.042 176.894Q768.336 181.612 774.438 186.576Q780.539 191.541 786.439 196.743C804.069 212.543 821.015 229.347 836.052 247.66Q838.682 250.903 841.246 254.198Q843.811 257.492 846.31 260.837Q848.809 264.181 851.242 267.575Q853.674 270.968 856.039 274.409Q858.404 277.85 860.701 281.337Q862.997 284.824 865.224 288.355Q867.451 291.887 869.607 295.462Q871.764 299.037 873.849 302.654Q875.935 306.271 877.948 309.929Q879.962 313.586 881.902 317.283Q883.843 320.98 885.71 324.714Q887.578 328.448 889.371 332.219Q891.164 335.989 892.882 339.795Q894.6 343.6 896.242 347.439Q897.885 351.277 899.451 355.147Q901.017 359.018 902.506 362.918Q903.995 366.819 905.407 370.748Q906.819 374.677 908.153 378.633Q909.487 382.59 910.742 386.572Q911.997 390.554 913.174 394.56Q914.35 398.566 915.447 402.594Q916.544 406.623 917.561 410.672Q918.577 414.722 919.514 418.79Q920.451 422.859 921.307 426.946Q922.162 431.032 922.937 435.135Q923.712 439.237 924.406 443.354Q925.099 447.472 925.711 451.602Q926.323 455.732 926.854 459.873Q927.384 464.014 927.832 468.165Q928.28 472.317 928.646 476.476Q929.012 480.635 929.295 484.8Q929.579 488.966 929.78 493.136Q930.023 498.189 930.144 503.246Q930.264 508.303 930.263 513.361Q930.262 518.42 930.139 523.477Q930.016 528.534 929.772 533.587Q929.527 538.639 929.16 543.685Q928.794 548.73 928.306 553.765Q927.818 558.8 927.209 563.822Q926.6 568.843 925.87 573.849Q925.14 578.855 924.29 583.841Q923.44 588.828 922.469 593.792Q921.499 598.757 920.41 603.697Q919.32 608.637 918.112 613.549Q916.904 618.461 915.578 623.343Q914.251 628.224 912.808 633.072Q911.364 637.921 909.804 642.733Q908.244 647.545 906.569 652.318Q904.894 657.091 903.104 661.822Q901.314 666.553 899.41 671.24Q897.507 675.927 895.491 680.567Q893.475 685.206 891.348 689.796Q889.221 694.385 886.984 698.922Q884.747 703.459 882.402 707.941Q880.056 712.423 877.603 716.847Q875.15 721.271 872.591 725.635Q870.032 729.998 867.369 734.299Q864.706 738.6 861.94 742.835Q859.174 747.07 856.306 751.238Q853.439 755.405 850.472 759.502Q847.505 763.6 844.44 767.624Q841.375 771.648 838.215 775.598Q835.054 779.547 831.799 783.419Q828.543 787.291 825.196 791.084Q821.663 794.965 818.035 798.757Q814.407 802.55 810.687 806.252Q806.967 809.954 803.156 813.564Q799.346 817.173 795.448 820.687Q791.55 824.202 787.567 827.619Q783.584 831.037 779.518 834.355Q775.452 837.673 771.305 840.891Q767.158 844.108 762.934 847.222Q758.709 850.336 754.409 853.345Q750.109 856.354 745.736 859.257Q741.364 862.159 736.921 864.953Q732.478 867.747 727.967 870.43Q723.457 873.114 718.882 875.686Q714.307 878.257 709.67 880.716Q705.033 883.174 700.337 885.517Q695.641 887.861 690.888 890.088Q686.136 892.315 681.33 894.424Q676.524 896.534 671.668 898.524Q666.812 900.514 661.908 902.384Q657.004 904.255 652.056 906.004Q647.107 907.752 642.117 909.379Q637.127 911.005 632.099 912.509Q627.07 914.012 622.006 915.391Q616.943 916.77 611.846 918.023Q606.75 919.277 601.624 920.405Q596.498 921.533 591.346 922.534Q586.194 923.536 581.019 924.41Q575.844 925.284 570.649 926.031Q565.454 926.777 560.243 927.396Q555.031 928.014 549.805 928.504Q544.58 928.994 539.344 929.355Q534.108 929.716 528.865 929.948C415.596 933.631 315.243 897.608 230.745 822.096Q226.954 818.657 223.249 815.126Q219.543 811.595 215.925 807.974Q212.307 804.354 208.779 800.646Q205.251 796.938 201.814 793.144Q198.378 789.351 195.035 785.475Q191.692 781.599 188.445 777.642Q185.198 773.685 182.049 769.65Q178.9 765.615 175.851 761.504Q172.801 757.393 169.853 753.209Q166.905 749.025 164.06 744.77Q161.216 740.515 158.476 736.191Q155.736 731.868 153.103 727.479Q150.47 723.089 147.945 718.637Q145.42 714.185 143.004 709.672Q140.589 705.16 138.285 700.589Q135.98 696.019 133.789 691.393Q131.597 686.768 129.519 682.09Q127.441 677.412 125.478 672.685Q123.515 667.958 121.669 663.184Q119.822 658.411 118.093 653.593Q116.363 648.776 114.752 643.917Q113.141 639.059 111.65 634.163Q110.158 629.267 108.787 624.335Q107.415 619.404 106.165 614.441Q104.915 609.477 103.786 604.485Q102.658 599.492 101.652 594.474Q100.646 589.455 99.7627 584.413Q98.8797 579.372 98.1203 574.31Q97.3609 569.248 96.7256 564.169Q96.0903 559.09 95.5794 553.997Q95.0685 548.905 94.6824 543.801Q94.2963 538.697 94.0351 533.585Q93.7765 529.085 93.6162 524.581Q93.4559 520.076 93.394 515.569Q93.332 511.062 93.3685 506.555Q93.405 502.048 93.5399 497.543Q93.6748 493.038 93.908 488.536Q94.1412 484.035 94.4727 479.54Q94.8041 475.045 95.2336 470.558Q95.6631 466.071 96.1905 461.595Q96.7178 457.118 97.3428 452.655Q97.9677 448.191 98.69 443.742Q99.4123 439.293 100.232 434.86Q101.051 430.428 101.967 426.015Q102.882 421.602 103.894 417.209Q104.906 412.817 106.014 408.448Q107.121 404.079 108.324 399.735Q109.527 395.391 110.824 391.074Q112.121 386.758 113.513 382.471Q114.904 378.183 116.388 373.928Q117.873 369.672 119.45 365.449Q121.027 361.227 122.696 357.04Q124.365 352.853 126.125 348.703Q127.884 344.554 129.734 340.444Q131.585 336.333 133.524 332.265Q135.463 328.196 137.491 324.17Q139.519 320.145 141.634 316.165Q143.749 312.185 145.95 308.251Q148.152 304.318 150.439 300.434Q152.726 296.55 155.097 292.717Q157.468 288.884 159.922 285.103Q162.376 281.323 164.913 277.597Q167.449 273.87 170.066 270.201Q172.683 266.531 175.379 262.919C181.855 254.318 188.4 245.712 195.598 237.695C241.34 186.751 294.287 148.499 358.013 123.063C371.411 117.715 384.723 112.711 398.637 108.855Q410.515 105.644 422.55 103.087Q434.585 100.529 446.742 98.6323Q458.898 96.7354 471.141 95.5048Q483.383 94.2742 495.674 93.7136Z"/>
	<path fill="#FEFEFE" d="M538.668 576.675C546.948 579.7 555.132 582.944 563.455 585.859C563.304 595.102 563.141 604.269 564.091 613.483C568.946 660.583 593.336 704.452 627.019 737.165C642.15 751.86 659.256 764.697 675.628 777.975L675.437 778.356Q672.028 777.372 668.658 776.263Q665.288 775.155 661.96 773.924Q658.633 772.693 655.352 771.341Q652.072 769.99 648.843 768.519Q645.615 767.048 642.442 765.46Q639.269 763.872 636.157 762.169Q633.044 760.466 629.996 758.651Q626.948 756.835 623.968 754.909Q620.989 752.983 618.081 750.949Q615.174 748.916 612.343 746.777Q609.512 744.639 606.762 742.398Q604.011 740.157 601.344 737.818Q598.677 735.478 596.097 733.042Q593.517 730.606 591.029 728.078Q588.54 725.549 586.145 722.931Q583.75 720.314 581.453 717.61C546.971 676.282 533.939 629.921 538.668 576.675Z"/>
	<path fill="#FEFEFE" d="M676.213 485.469C680.621 488.395 684.784 492.05 688.984 495.295Q702.055 505.449 715.31 515.363C752.579 542.9 790.938 561.718 835.984 572.534C829.314 576.88 820.839 579.618 813.23 581.96C775.837 593.468 736.057 593.628 697.616 588.045C654.808 581.455 613.653 568.922 573.431 553.123C561.12 548.287 549.111 542.739 536.817 537.858C550.634 537.996 570.594 541.526 583.484 539.304C588.885 538.372 665.62 491.815 676.213 485.469Z"/>
	<path fill="#FEFEFE" d="M888.496 580.647C887.367 590.725 884.109 601.02 881.61 610.846C864.335 678.789 827.402 743.691 775.364 790.874C697.519 861.456 597.225 899.987 491.795 894.659Q487.076 894.387 482.366 894Q477.655 893.613 472.955 893.111Q468.255 892.609 463.569 891.992Q458.883 891.374 454.214 890.643Q449.544 889.911 444.894 889.065Q440.244 888.22 435.616 887.26Q430.987 886.301 426.384 885.229Q421.781 884.156 417.205 882.972Q412.63 881.787 408.084 880.491Q403.539 879.194 399.027 877.787Q394.515 876.38 390.038 874.863Q385.562 873.346 381.124 871.719Q376.686 870.093 372.289 868.359Q367.892 866.624 363.539 864.783Q359.186 862.941 354.88 860.994Q350.573 859.046 346.315 856.994Q342.058 854.941 337.852 852.785Q333.645 850.629 329.493 848.371Q325.341 846.113 321.246 843.753Q317.15 841.394 313.113 838.935Q309.077 836.477 305.101 833.92Q301.126 831.363 297.215 828.71Q293.303 826.056 289.458 823.308Q285.613 820.56 281.836 817.718Q278.059 814.876 274.353 811.943Q270.646 809.01 267.013 805.987Q263.38 802.964 259.821 799.853Q256.263 796.741 252.782 793.544Q249.301 790.347 245.899 787.065Q242.498 783.784 239.177 780.42Q235.857 777.056 232.62 773.612Q229.383 770.168 226.231 766.646Q223.109 763.164 220.073 759.606Q217.038 756.047 214.091 752.416Q211.143 748.784 208.287 745.081Q205.43 741.378 202.665 737.605Q199.9 733.833 197.229 729.994Q194.558 726.155 191.982 722.251Q189.406 718.347 186.927 714.381Q184.448 710.415 182.067 706.389Q179.686 702.363 177.405 698.28Q175.124 694.197 172.945 690.059Q170.765 685.921 168.687 681.73Q166.61 677.54 164.637 673.3Q162.663 669.06 160.794 664.772Q158.926 660.484 157.163 656.152Q155.401 651.82 153.745 647.446Q152.09 643.071 150.543 638.658Q148.996 634.244 147.557 629.793Q146.119 625.343 144.791 620.858Q143.463 616.374 142.245 611.858Q141.028 607.342 139.922 602.798Q138.816 598.253 137.822 593.683Q136.828 589.113 135.947 584.52Q135.066 579.926 134.298 575.313Q133.531 570.699 132.877 566.068Q132.223 561.437 131.683 556.791Q131.143 552.145 130.718 547.488Q130.292 542.83 129.982 538.163Q129.671 533.496 129.475 528.823Q129.28 524.151 129.199 519.474Q129.118 514.798 129.153 510.121Q129.187 505.444 129.337 500.769Q129.486 496.095 129.751 491.425Q129.975 486.729 130.315 482.039Q130.656 477.35 131.114 472.671Q131.571 467.992 132.146 463.325Q132.72 458.659 133.41 454.008Q134.101 449.358 134.907 444.726Q135.713 440.094 136.635 435.483Q137.557 430.873 138.593 426.287Q139.63 421.701 140.78 417.142Q141.931 412.584 143.195 408.055Q144.458 403.527 145.835 399.031Q147.211 394.536 148.7 390.076Q150.188 385.616 151.787 381.195Q153.386 376.773 155.095 372.393Q156.804 368.013 158.622 363.677Q160.439 359.341 162.365 355.052Q164.29 350.763 166.322 346.523Q168.353 342.283 170.49 338.095Q172.627 333.907 174.868 329.773Q177.108 325.64 179.452 321.564Q181.795 317.488 184.239 313.472Q186.683 309.455 189.227 305.501Q191.77 301.547 194.412 297.658Q197.053 293.768 199.791 289.946Q202.529 286.123 205.361 282.371Q208.193 278.618 211.118 274.937Q214.043 271.256 217.059 267.649Q220.075 264.042 223.18 260.512Q226.285 256.981 229.477 253.529Q232.669 250.078 235.946 246.706Q239.223 243.335 242.584 240.047Q245.944 236.759 249.385 233.555Q252.827 230.352 256.347 227.235C329.881 161.329 429.983 123.833 528.974 129.282C636.58 135.206 728.675 180.273 800.444 260.458C858.679 325.522 891.232 412.76 895.254 499.545C895.972 515.042 895.3 530.512 894.44 545.984Q885.934 546.359 877.453 545.612C878.973 483.071 873.015 424.091 847.686 366.222C844.209 358.277 840.134 350.592 836.175 342.88Q833.381 337.312 830.384 331.851Q827.386 326.391 824.189 321.044Q820.992 315.698 817.599 310.474Q814.206 305.25 810.622 300.154Q807.039 295.059 803.269 290.099Q799.5 285.14 795.55 280.323Q791.599 275.506 787.474 270.839Q783.348 266.172 779.053 261.66Q776.532 258.986 773.958 256.363Q771.385 253.74 768.76 251.169Q766.135 248.597 763.459 246.078Q760.784 243.559 758.059 241.093Q755.334 238.628 752.561 236.217Q749.787 233.806 746.967 231.45Q744.146 229.095 741.28 226.796Q738.413 224.496 735.501 222.255Q732.59 220.013 729.634 217.829Q726.679 215.645 723.68 213.52Q720.682 211.396 717.642 209.331Q714.603 207.266 711.522 205.262Q708.442 203.258 705.323 201.315Q702.204 199.372 699.047 197.492Q695.89 195.611 692.696 193.794Q689.502 191.976 686.273 190.222Q683.044 188.468 679.78 186.779Q676.517 185.089 673.221 183.465Q669.925 181.84 666.597 180.281Q663.269 178.722 659.911 177.23Q656.553 175.737 653.166 174.311Q649.779 172.886 646.365 171.527Q642.95 170.169 639.509 168.879Q636.069 167.588 632.603 166.367Q629.137 165.145 625.648 163.992Q622.159 162.839 618.647 161.755Q615.136 160.672 611.604 159.658Q608.072 158.644 604.52 157.701Q600.968 156.757 597.399 155.884Q593.829 155.012 590.243 154.21Q586.657 153.408 583.056 152.677Q579.454 151.946 575.839 151.287C559.746 148.371 543.268 146.058 526.896 145.682C505.837 145.197 483.958 145.502 463.046 148.201C395.713 156.892 331.549 186.398 279.081 229.195C270.342 236.323 262.072 244.127 253.917 251.915C246.265 259.225 239.431 267.274 232.554 275.3Q230.027 278.265 227.565 281.283Q225.103 284.302 222.706 287.373Q220.31 290.444 217.98 293.566Q215.651 296.688 213.389 299.859Q211.127 303.031 208.935 306.251Q206.742 309.47 204.619 312.737Q202.497 316.003 200.445 319.314Q198.393 322.625 196.414 325.98Q194.434 329.335 192.527 332.732Q190.62 336.129 188.787 339.566Q186.954 343.003 185.196 346.479Q183.438 349.955 181.755 353.468Q180.072 356.981 178.465 360.53Q176.858 364.079 175.329 367.661Q173.799 371.244 172.347 374.858Q170.895 378.473 169.522 382.118Q168.148 385.763 166.853 389.437Q165.559 393.111 164.344 396.812Q163.129 400.513 161.994 404.24Q160.859 407.966 159.805 411.716Q158.751 415.466 157.778 419.238Q156.806 423.01 155.914 426.802Q155.023 430.595 154.214 434.405Q153.405 438.215 152.678 442.042Q151.952 445.87 151.308 449.711Q150.664 453.553 150.103 457.408Q149.542 461.263 149.065 465.129Q148.588 468.995 148.194 472.87Q147.8 476.746 147.49 480.629Q147.18 484.512 146.954 488.401Q146.727 492.289 146.585 496.182Q146.443 500.075 146.385 503.97C145.429 550.134 152.767 599.966 169.501 643.088C174.688 656.456 181.163 669.318 187.691 682.071C201.366 708.788 220.467 737.337 241.31 759.032C312.133 832.748 401.178 877.18 504.391 878.978Q510.504 879.101 516.618 879.021Q522.731 878.94 528.839 878.657Q534.947 878.373 541.042 877.886Q547.136 877.399 553.212 876.71Q559.287 876.021 565.336 875.13Q571.385 874.239 577.401 873.147Q583.417 872.055 589.393 870.764Q595.37 869.472 601.3 867.983Q607.23 866.493 613.107 864.807Q618.984 863.122 624.802 861.241Q630.62 859.361 636.372 857.288Q642.124 855.215 647.804 852.951Q653.484 850.688 659.085 848.237Q664.687 845.786 670.204 843.15Q675.72 840.514 681.147 837.696Q686.573 834.878 691.902 831.881C716.395 818.331 739.32 802.403 759.49 782.909C804.519 739.387 835.259 693.718 856.129 634.647C859.595 624.836 862.32 614.997 864.94 604.928C865.942 601.077 867.315 596.997 867.87 593.065C871.133 589.726 883.938 582.959 888.496 580.647Z"/>
	<path fill="#FFB800" d="M472.252 259.715L473.129 259.687C519.798 258.315 565.218 277.184 598.956 309.064C637.344 345.339 661.132 399.037 662.628 451.813C653.894 458.917 642.474 464.376 632.771 470.203Q612.971 482.198 592.892 493.721C587.204 496.954 581.414 500.642 575.46 503.341C573.037 504.439 570.681 504.776 568.038 504.751C556.559 504.645 544.623 503.229 533.181 502.156C492.813 498.367 457.048 491.989 427.228 461.415C435.607 494.349 450.793 508.807 475.613 529.993Q471.447 530.648 467.249 531.045Q463.051 531.443 458.837 531.583Q454.622 531.723 450.407 531.604Q446.192 531.484 441.992 531.107C413.628 528.297 389.652 515.874 371.608 493.764C362.019 482.179 356.738 465.723 355.65 450.908C336.208 477.953 327.922 505.305 327.452 538.45L325.91 534.674C310.404 496.254 314.874 455.019 330.988 417.52C348.21 377.443 381.6 343.1 420.355 323.336C425.651 320.635 431.168 318.514 436.674 316.294C389.167 317.811 343.347 335.973 309.773 369.86C316.478 352.387 327.767 335.414 340.267 321.498C375.793 281.947 419.484 262.581 472.252 259.715Z"/>
	<path d="M540.803 371.195C552.507 370.236 565.364 374.13 574.526 381.489C584.783 389.727 591.49 402.816 592.793 415.845C594.141 429.316 590.624 443.167 581.918 453.653C573.11 464.263 561.409 470.825 547.657 472.088C535.035 472.632 522.958 469.451 512.894 461.619C502.508 453.536 495.847 440.708 494.381 427.705Q494.234 426.45 494.151 425.189Q494.067 423.929 494.046 422.666Q494.025 421.402 494.067 420.14Q494.109 418.877 494.215 417.618Q494.32 416.359 494.487 415.107Q494.655 413.854 494.885 412.612Q495.114 411.37 495.406 410.14Q495.697 408.911 496.05 407.698Q496.402 406.485 496.814 405.29Q497.227 404.096 497.698 402.924Q498.169 401.752 498.699 400.604Q499.228 399.457 499.814 398.338Q500.399 397.218 501.04 396.13Q501.681 395.041 502.375 393.985Q503.069 392.93 503.815 391.91Q504.561 390.89 505.357 389.909C514.333 378.767 526.691 372.732 540.803 371.195Z"/>
	<path fill="#FEFEFE" d="M524.992 381.115C529.968 381.049 534.713 381.862 538.926 384.68Q539.298 384.927 539.657 385.194Q540.016 385.46 540.361 385.744Q540.706 386.028 541.036 386.329Q541.366 386.63 541.68 386.948Q541.995 387.265 542.292 387.598Q542.59 387.932 542.871 388.279Q543.151 388.627 543.413 388.989Q543.676 389.351 543.919 389.725Q544.163 390.1 544.387 390.486Q544.611 390.873 544.816 391.27Q545.02 391.667 545.204 392.075Q545.388 392.482 545.551 392.898Q545.714 393.314 545.855 393.738Q545.997 394.162 546.116 394.592Q546.236 395.023 546.334 395.459Q546.432 395.895 546.507 396.335C547.357 401.178 546.371 406.372 543.442 410.365C540.059 414.976 535.315 416.92 529.875 417.878C525.458 418.161 521.103 417.522 517.265 415.198Q516.855 414.947 516.459 414.675Q516.063 414.404 515.681 414.112Q515.299 413.821 514.932 413.51Q514.565 413.2 514.215 412.871Q513.865 412.542 513.532 412.196Q513.199 411.85 512.884 411.487Q512.569 411.124 512.272 410.746Q511.976 410.367 511.7 409.974Q511.424 409.581 511.168 409.175Q510.911 408.768 510.676 408.349Q510.442 407.93 510.228 407.499Q510.015 407.069 509.824 406.628Q509.633 406.187 509.465 405.737Q509.296 405.287 509.151 404.829Q509.006 404.371 508.884 403.906Q508.763 403.441 508.665 402.971C507.615 398.043 508.84 392.818 511.754 388.738C515.086 384.073 519.539 382.105 524.992 381.115Z"/>
	<path fill="#FFB800" d="M867.87 593.065C867.315 596.997 865.942 601.077 864.94 604.928C862.32 614.997 859.595 624.836 856.129 634.647C835.259 693.718 804.519 739.387 759.49 782.909C739.32 802.403 716.395 818.331 691.902 831.881Q686.573 834.878 681.147 837.696Q675.72 840.514 670.204 843.15Q664.687 845.786 659.085 848.237Q653.484 850.688 647.804 852.951Q642.124 855.215 636.372 857.288Q630.62 859.361 624.802 861.241Q618.984 863.122 613.107 864.807Q607.23 866.493 601.299 867.983Q595.369 869.472 589.393 870.764Q583.417 872.055 577.401 873.147Q571.385 874.239 565.336 875.13Q559.287 876.021 553.212 876.71Q547.136 877.399 541.042 877.886Q534.947 878.373 528.839 878.657Q522.731 878.94 516.618 879.021Q510.504 879.101 504.391 878.978C401.178 877.18 312.133 832.748 241.31 759.032C220.467 737.337 201.366 708.788 187.691 682.071C181.163 669.318 174.688 656.456 169.501 643.088C152.767 599.966 145.429 550.134 146.385 503.97Q146.443 500.075 146.585 496.182Q146.727 492.289 146.954 488.401Q147.18 484.512 147.49 480.629Q147.8 476.746 148.194 472.87Q148.588 468.995 149.065 465.129Q149.542 461.263 150.103 457.408Q150.664 453.553 151.308 449.711Q151.952 445.87 152.678 442.042Q153.405 438.215 154.214 434.405Q155.023 430.595 155.914 426.802Q156.806 423.01 157.778 419.238Q158.751 415.466 159.805 411.716Q160.859 407.966 161.994 404.24Q163.129 400.513 164.344 396.812Q165.559 393.111 166.853 389.437Q168.148 385.763 169.522 382.118Q170.895 378.473 172.347 374.858Q173.799 371.244 175.329 367.661Q176.858 364.079 178.465 360.53Q180.072 356.981 181.755 353.468Q183.438 349.955 185.196 346.479Q186.954 343.003 188.787 339.566Q190.62 336.129 192.527 332.732Q194.434 329.335 196.414 325.98Q198.393 322.625 200.445 319.314Q202.497 316.003 204.619 312.737Q206.742 309.47 208.935 306.251Q211.127 303.031 213.389 299.859Q215.651 296.688 217.98 293.566Q220.31 290.444 222.706 287.373Q225.103 284.302 227.565 281.283Q230.027 278.265 232.554 275.3C239.431 267.274 246.265 259.225 253.917 251.915C262.072 244.127 270.342 236.323 279.081 229.195C331.549 186.398 395.713 156.892 463.046 148.201C483.958 145.502 505.837 145.197 526.896 145.682C543.268 146.058 559.746 148.371 575.839 151.287Q579.454 151.946 583.056 152.677Q586.657 153.408 590.243 154.21Q593.829 155.012 597.399 155.884Q600.968 156.757 604.52 157.701Q608.072 158.644 611.604 159.658Q615.136 160.672 618.647 161.755Q622.159 162.839 625.648 163.992Q629.137 165.145 632.603 166.367Q636.069 167.588 639.509 168.879Q642.95 170.169 646.365 171.527Q649.779 172.886 653.166 174.311Q656.553 175.737 659.911 177.23Q663.269 178.722 666.597 180.281Q669.924 181.84 673.221 183.465Q676.517 185.089 679.78 186.779Q683.044 188.468 686.273 190.222Q689.502 191.976 692.696 193.793Q695.89 195.611 699.047 197.492Q702.204 199.372 705.323 201.315Q708.442 203.258 711.522 205.262Q714.603 207.266 717.642 209.331Q720.682 211.396 723.68 213.52Q726.679 215.645 729.634 217.829Q732.59 220.013 735.501 222.255Q738.413 224.496 741.28 226.796Q744.146 229.095 746.967 231.45Q749.787 233.806 752.561 236.217Q755.334 238.628 758.059 241.093Q760.784 243.559 763.459 246.078Q766.135 248.597 768.76 251.169Q771.385 253.74 773.958 256.363Q776.532 258.986 779.053 261.66Q783.348 266.172 787.474 270.839Q791.599 275.506 795.55 280.323Q799.5 285.14 803.269 290.099Q807.039 295.059 810.622 300.154Q814.206 305.25 817.599 310.474Q820.992 315.698 824.189 321.044Q827.386 326.391 830.384 331.851Q833.381 337.312 836.175 342.88C840.134 350.592 844.209 358.277 847.686 366.222C873.015 424.091 878.973 483.071 877.453 545.612C826.219 540.423 775.755 516.817 734.95 486.167C722.225 476.608 710.672 465.646 698.113 455.922C697.146 443.455 696.376 430.982 694.286 418.639C687.265 377.184 670.004 335.605 643.348 302.862C634.329 291.784 623.843 281.664 612.998 272.391C572.026 237.36 515.726 220.411 462.219 224.677C401.252 229.536 348.548 256.336 308.99 302.978C290.53 324.744 276.376 351.382 267.559 378.514C265.244 385.638 263.956 393.026 261.734 400.14C245.778 400.468 229.461 400.926 213.521 400.331Q215.041 396.514 216.653 392.735Q218.266 388.956 219.968 385.216Q221.671 381.477 223.463 377.78Q225.256 374.083 227.137 370.43Q229.018 366.777 230.987 363.171Q232.955 359.565 235.01 356.007Q237.066 352.449 239.206 348.942Q241.346 345.435 243.57 341.98Q245.795 338.526 248.102 335.126Q250.408 331.726 252.797 328.383Q255.185 325.04 257.653 321.755Q260.121 318.47 262.668 315.246Q265.215 312.022 267.839 308.86Q270.462 305.698 273.162 302.601Q275.861 299.503 278.634 296.471Q281.407 293.44 284.253 290.476Q287.098 287.512 290.014 284.618Q292.93 281.723 295.916 278.9Q298.901 276.077 301.953 273.327Q305.005 270.576 308.123 267.9Q311.241 265.225 314.422 262.625Q317.604 260.025 320.847 257.502Q324.09 254.98 327.393 252.536Q330.696 250.093 334.058 247.73Q337.419 245.367 340.836 243.085Q344.253 240.804 347.724 238.606Q351.195 236.407 354.718 234.294Q358.241 232.18 361.815 230.151Q365.388 228.123 369.009 226.182Q372.63 224.24 376.296 222.386Q379.963 220.533 383.674 218.768Q387.384 217.004 391.136 215.329C478.949 177.072 572.85 177.025 661.638 212.102C706.354 229.768 747.416 258.293 781.012 292.491C787.519 299.115 793.96 305.792 799.904 312.93C801.221 314.512 804.751 319.828 806.424 320.472C805.658 317.124 797.876 308.431 795.484 305.455C768.171 271.465 736.381 241.008 699.349 217.743Q695.679 215.425 691.953 213.198Q688.228 210.971 684.448 208.835Q680.669 206.7 676.839 204.658Q673.009 202.616 669.129 200.669Q665.25 198.721 661.324 196.87Q657.398 195.018 653.428 193.263Q649.458 191.508 645.446 189.851Q641.434 188.194 637.383 186.635Q633.331 185.077 629.243 183.619Q625.155 182.16 621.032 180.802Q616.909 179.445 612.754 178.188Q608.599 176.932 604.415 175.778Q600.23 174.624 596.019 173.573Q591.807 172.522 587.571 171.574Q583.335 170.626 579.077 169.783Q574.819 168.94 570.542 168.201Q566.264 167.462 561.97 166.828Q557.676 166.194 553.368 165.666Q549.059 165.138 544.739 164.715Q540.419 164.293 536.09 163.977Q531.761 163.66 527.425 163.45Q523.09 163.24 518.75 163.136Q514.411 163.032 510.07 163.034Q505.729 163.037 501.39 163.146Q497.051 163.255 492.715 163.47Q488.38 163.686 484.051 164.007Q479.723 164.329 475.403 164.756Q471.083 165.184 466.776 165.717Q462.468 166.25 458.174 166.889Q453.881 167.528 449.604 168.272Q445.328 169.016 441.071 169.864Q436.814 170.712 432.579 171.665Q428.56 172.565 424.565 173.562Q420.569 174.56 416.599 175.656Q412.629 176.751 408.687 177.944Q404.745 179.136 400.834 180.425Q396.922 181.714 393.044 183.098Q389.165 184.482 385.321 185.961Q381.478 187.44 377.672 189.013Q373.865 190.586 370.099 192.251Q366.332 193.917 362.608 195.675Q358.883 197.432 355.203 199.28Q351.523 201.129 347.889 203.067Q344.255 205.005 340.67 207.031Q337.085 209.058 333.55 211.171Q330.016 213.285 326.534 215.485Q323.053 217.685 319.626 219.969Q316.199 222.254 312.83 224.622Q309.46 226.99 306.15 229.439Q302.839 231.889 299.59 234.419Q296.341 236.949 293.154 239.559Q289.968 242.168 286.846 244.854Q283.725 247.541 280.67 250.303Q277.616 253.065 274.63 255.901Q271.643 258.737 268.728 261.646Q265.812 264.555 262.969 267.534Q260.126 270.513 257.356 273.561Q254.587 276.609 251.893 279.724Q249.199 282.839 246.582 286.02Q243.965 289.2 241.428 292.443Q238.89 295.686 236.432 298.991Q233.974 302.296 231.598 305.66Q229.223 309.023 226.93 312.445Q224.637 315.866 222.429 319.342C200.818 353.977 184.508 392.755 177.185 433.073Q216.255 432.691 255.326 433.03C254.22 451.021 253.952 468.864 256.109 486.795C257.324 496.896 259.614 506.745 262.235 516.565C273.247 557.824 293.984 593.008 322.128 624.86C353.498 660.362 399.911 691.097 446.221 702.202C412.114 675.849 388.1 639.348 371.038 600.191C385.291 614.739 399.569 628.885 415.824 641.238C422.373 646.215 429.017 651.364 436 655.718C443.641 660.483 452.105 664.577 459.281 670.004C472.77 680.206 481.195 698.027 480.943 714.893C480.775 726.178 476.236 735.642 468.092 743.385C449.484 761.077 416.947 766.225 392.338 765.441C335.395 763.629 283.422 730.96 245.406 690.402C216.946 660.038 198.582 627.574 181.958 589.733C175.369 574.733 169.37 560.089 164.751 544.355C168.254 571.168 173.117 597.946 181.31 623.762Q182.302 626.804 183.352 629.826Q184.402 632.848 185.509 635.849Q186.616 638.851 187.78 641.831Q188.944 644.812 190.164 647.769Q191.384 650.727 192.66 653.661Q193.936 656.595 195.267 659.504Q196.598 662.413 197.984 665.296Q199.37 668.18 200.811 671.036Q202.252 673.893 203.746 676.722Q205.241 679.551 206.789 682.351Q208.336 685.151 209.937 687.921Q211.538 690.691 213.191 693.43Q214.844 696.169 216.548 698.877Q218.253 701.584 220.008 704.259Q221.764 706.933 223.57 709.574Q225.376 712.215 227.232 714.821Q229.087 717.427 230.992 719.998Q232.897 722.568 234.85 725.102Q236.803 727.636 238.804 730.133Q240.805 732.629 242.853 735.087Q244.901 737.545 246.995 739.964Q249.089 742.383 251.228 744.761Q253.368 747.14 255.552 749.478Q257.737 751.816 259.965 754.111Q262.193 756.407 264.464 758.66Q266.736 760.913 269.049 763.123Q271.363 765.333 273.718 767.498Q276.073 769.664 278.469 771.784Q280.865 773.904 283.3 775.979Q285.736 778.054 288.21 780.082Q290.685 782.11 293.197 784.09Q295.709 786.071 298.259 788.004C357.928 833.925 426.125 859.364 501.462 861.507Q515.058 861.983 528.65 861.386Q542.242 860.788 555.744 859.12C610.128 851.991 658.904 833.229 704.956 803.653C717.708 795.463 730.484 786.951 741.434 776.401C729.771 769.842 717.624 764.208 706.226 757.169Q693.818 749.345 682.212 740.375Q670.606 731.405 659.907 721.371C653.081 714.935 646.137 708.476 639.986 701.378C622.716 681.448 611.009 657.122 603.896 631.85C600.911 621.243 598.86 610.486 598.916 599.431C617.026 605.261 635.116 611.275 653.644 615.666C715.816 630.397 788.87 634.368 847.395 604.345C854.309 600.798 861.163 596.989 867.87 593.065Z"/>
</svg>
