<?xml version="1.0" encoding="UTF-8"?>
<svg version="1.1" xmlns="http://www.w3.org/2000/svg" width="98" height="98">
<path d="M0 0 C1.77418556 0.00213753 1.77418556 0.00213753 3.58421326 0.00431824 C4.23638824 0.00241989 4.88856323 0.00052155 5.5605011 -0.00143433 C7.72013805 -0.00514463 9.87944009 0.00556444 12.03904724 0.01676941 C13.5359493 0.01796106 15.03285212 0.0184144 16.52975464 0.01815796 C19.6679095 0.0197232 22.80595035 0.02801665 25.94407654 0.04142761 C29.9750783 0.05843219 34.00595483 0.06224157 38.03698826 0.06148243 C41.12781987 0.06175378 44.21862388 0.06722901 47.30944633 0.07448387 C48.79626697 0.07767513 50.28309075 0.07963901 51.76991463 0.08037758 C53.84348556 0.08253551 55.91692118 0.09126726 57.99046326 0.10197449 C59.17245804 0.10578629 60.35445282 0.10959808 61.57226562 0.11352539 C64.22264099 0.24723816 64.22264099 0.24723816 65.22264099 1.24723816 C65.33286684 3.50088018 65.37178996 5.75802384 65.3837738 8.014328 C65.39122116 9.0753347 65.39122116 9.0753347 65.39881897 10.15777588 C65.41347587 12.50791888 65.42024859 14.85799438 65.42576599 17.20817566 C65.43151478 18.83623762 65.43727254 20.46429955 65.44303894 22.09236145 C65.45355914 25.5105267 65.45939504 28.92866836 65.46287537 32.34684753 C65.46836064 36.73090164 65.49238487 41.11464523 65.52084732 45.49860191 C65.53945462 48.8631634 65.54467828 52.22764985 65.54621124 55.59225845 C65.54924291 57.20862652 65.5572887 58.82499312 65.57039642 60.44131088 C65.58741678 62.70156833 65.58558688 64.96106405 65.5790863 67.22135925 C65.58455475 69.15209793 65.58455475 69.15209793 65.59013367 71.12184143 C65.22264099 74.24723816 65.22264099 74.24723816 63.84172058 76.15437317 C61.71850107 77.58752833 60.07693593 77.75055012 57.53514099 77.93473816 C56.7268988 78.00048035 55.91865662 78.06622253 55.08592224 78.13395691 C54.47103943 78.17133972 53.85615662 78.20872253 53.22264099 78.24723816 C53.04088318 78.80153503 52.85912537 79.35583191 52.67185974 79.92692566 C52.42049255 80.65137878 52.16912537 81.37583191 51.91014099 82.12223816 C51.66650818 82.84153503 51.42287537 83.56083191 51.17185974 84.30192566 C50.22264099 86.24723816 50.22264099 86.24723816 47.22264099 88.24723816 C45.17967224 88.66130066 45.17967224 88.66130066 43.03514099 88.87223816 C41.77701599 88.99598816 40.51889099 89.11973816 39.22264099 89.24723816 C38.23264099 92.21723816 37.24264099 95.18723816 36.22264099 98.24723816 C27.37381709 98.27036404 18.52500352 98.2881545 9.67615604 98.29905033 C5.56769815 98.30427862 1.45926085 98.31137529 -2.64918518 98.32267761 C-6.61082729 98.33350841 -10.57244953 98.3395154 -14.5341053 98.3421154 C-16.04884212 98.3439693 -17.5635778 98.34758925 -19.0783062 98.35296822 C-21.19277713 98.36018123 -23.30716495 98.36122899 -25.42164612 98.36076355 C-27.23033424 98.36409447 -27.23033424 98.36409447 -29.07556152 98.36749268 C-31.77735901 98.24723816 -31.77735901 98.24723816 -32.77735901 97.24723816 C-32.89817762 94.96323213 -32.94766266 92.67543942 -32.9702301 90.38835144 C-32.97840759 89.67126007 -32.98658508 88.9541687 -32.99501038 88.21534729 C-33.0199052 85.83275704 -33.03638989 83.45022648 -33.05079651 81.06755066 C-33.05612019 80.25580257 -33.06144386 79.44405449 -33.06692886 78.60770798 C-33.09367714 74.31194247 -33.11304735 70.01620621 -33.12745667 65.72038269 C-33.14411676 61.27559047 -33.18890022 56.831538 -33.23982811 52.38702583 C-33.27342874 48.97614151 -33.28502609 45.56543436 -33.29068375 42.15439987 C-33.29741534 40.5156628 -33.3126868 38.87693815 -33.33657455 37.23836136 C-33.36808048 34.94659307 -33.36828633 32.65684054 -33.3608551 30.36491394 C-33.36894196 29.05998993 -33.37702881 27.75506592 -33.38536072 26.41059875 C-32.77735901 23.24723816 -32.77735901 23.24723816 -30.38078308 21.32069397 C-26.59165258 19.75834222 -23.84263254 20.04052934 -19.77735901 20.24723816 C-19.67423401 19.31911316 -19.57110901 18.39098816 -19.46485901 17.43473816 C-18.73926496 14.07062031 -18.4159149 13.27327215 -15.77735901 11.24723816 C-13.51564026 10.73551941 -13.51564026 10.73551941 -11.08985901 10.55973816 C-9.87749573 10.46112488 -9.87749573 10.46112488 -8.64064026 10.36051941 C-8.02575745 10.3231366 -7.41087463 10.28575378 -6.77735901 10.24723816 C-6.48860901 8.96848816 -6.19985901 7.68973816 -5.90235901 6.37223816 C-5.01186515 2.42862252 -4.41045526 0.39261501 0 0 Z " fill="#FEFDF6" transform="translate(32.77735900878906,-0.2472381591796875)"/>
<path d="M0 0 C6.39037797 -0.024644 12.78072852 -0.04283317 19.17114258 -0.05493164 C21.34692873 -0.05997308 23.52271147 -0.06680607 25.69848633 -0.07543945 C28.81853067 -0.08751338 31.93853038 -0.09323005 35.05859375 -0.09765625 C36.52733192 -0.10539818 36.52733192 -0.10539818 38.02574158 -0.11329651 C39.37702904 -0.11340981 39.37702904 -0.11340981 40.75561523 -0.11352539 C41.95141457 -0.11685631 41.95141457 -0.11685631 43.17137146 -0.12025452 C45 0 45 0 46 1 C46.09943972 3.08075409 46.12799596 5.16491848 46.12939453 7.24804688 C46.13114685 7.90007584 46.13289917 8.5521048 46.13470459 9.22389221 C46.13912204 11.38887153 46.13618551 13.55376979 46.1328125 15.71875 C46.13348557 17.21708187 46.13445562 18.71541363 46.13571167 20.21374512 C46.1371885 23.35783933 46.13503458 26.50190517 46.13037109 29.64599609 C46.1246738 33.68486539 46.12795289 37.72366824 46.13394356 41.7625351 C46.13754958 44.8576508 46.13641039 47.95275065 46.13381577 51.04786682 C46.13314661 52.53748075 46.13397452 54.0270961 46.13629532 55.51670837 C46.13882253 57.59516235 46.13498033 59.67350731 46.12939453 61.75195312 C46.12859894 62.93696411 46.12780334 64.1219751 46.12698364 65.34289551 C46 68 46 68 45 69 C43.10301151 69.09915795 41.20231213 69.12799314 39.30273438 69.12939453 C38.08477173 69.13254669 36.86680908 69.13569885 35.61193848 69.13894653 C34.27254195 69.13715675 32.93314576 69.1351058 31.59375 69.1328125 C30.2299396 69.1334856 28.86612932 69.13445567 27.50231934 69.13571167 C24.64069479 69.13718838 21.7791014 69.13503497 18.91748047 69.13037109 C15.24181386 69.12467381 11.56622026 69.12795296 7.89055634 69.13394356 C5.07337896 69.13754991 2.25621902 69.13641025 -0.56095886 69.13381577 C-1.91660063 69.1331467 -3.27224396 69.13397421 -4.62788391 69.13629532 C-6.51950044 69.13882301 -8.41112249 69.13429014 -10.30273438 69.12939453 C-11.92036682 69.12820114 -11.92036682 69.12820114 -13.57067871 69.12698364 C-16 69 -16 69 -17 68 C-17.0935919 66.28134591 -17.11744611 64.55884256 -17.11352539 62.83764648 C-17.11344986 61.73658066 -17.11337433 60.63551483 -17.11329651 59.50108337 C-17.10813522 58.3031868 -17.10297394 57.10529022 -17.09765625 55.87109375 C-17.0962413 54.65172623 -17.09482635 53.4323587 -17.09336853 52.17604065 C-17.08774967 48.2631693 -17.07519396 44.35035419 -17.0625 40.4375 C-17.05748743 37.79231853 -17.0529241 35.14713617 -17.04882812 32.50195312 C-17.03777411 26.00128026 -17.02049683 19.50064968 -17 13 C-9.08 12.505 -9.08 12.505 -1 12 C-0.67 8.04 -0.34 4.08 0 0 Z " fill="#F9FDFB" transform="translate(48,4)"/>
<path d="M0 0 C1.18279037 0.00142502 2.36558075 0.00285004 3.58421326 0.00431824 C4.23638824 0.00241989 4.88856323 0.00052155 5.5605011 -0.00143433 C7.72013805 -0.00514463 9.87944009 0.00556444 12.03904724 0.01676941 C13.5359493 0.01796106 15.03285212 0.0184144 16.52975464 0.01815796 C19.6679095 0.0197232 22.80595035 0.02801665 25.94407654 0.04142761 C29.9750783 0.05843219 34.00595483 0.06224157 38.03698826 0.06148243 C41.12781987 0.06175378 44.21862388 0.06722901 47.30944633 0.07448387 C48.79626697 0.07767513 50.28309075 0.07963901 51.76991463 0.08037758 C53.84348556 0.08253551 55.91692118 0.09126726 57.99046326 0.10197449 C59.17245804 0.10578629 60.35445282 0.10959808 61.57226562 0.11352539 C64.22264099 0.24723816 64.22264099 0.24723816 65.22264099 1.24723816 C65.33286684 3.50088018 65.37178996 5.75802384 65.3837738 8.014328 C65.39122116 9.0753347 65.39122116 9.0753347 65.39881897 10.15777588 C65.41347587 12.50791888 65.42024859 14.85799438 65.42576599 17.20817566 C65.43151478 18.83623762 65.43727254 20.46429955 65.44303894 22.09236145 C65.45355914 25.5105267 65.45939504 28.92866836 65.46287537 32.34684753 C65.46836064 36.73090164 65.49238487 41.11464523 65.52084732 45.49860191 C65.53945462 48.8631634 65.54467828 52.22764985 65.54621124 55.59225845 C65.54924291 57.20862652 65.5572887 58.82499312 65.57039642 60.44131088 C65.58741678 62.70156833 65.58558688 64.96106405 65.5790863 67.22135925 C65.58455475 69.15209793 65.58455475 69.15209793 65.59013367 71.12184143 C65.22264099 74.24723816 65.22264099 74.24723816 64.08586121 76.16308594 C61.36428119 77.7466921 59.19304236 77.62131438 56.05467224 77.61955261 C54.78325378 77.6257814 53.51183533 77.63201019 52.20188904 77.63842773 C50.81296904 77.62973964 49.42405286 77.62042166 48.03514099 77.61051941 C46.61171977 77.61000074 45.18829783 77.6105187 43.76487732 77.61203003 C40.78226523 77.61194033 37.79992355 77.60151538 34.81736755 77.5834198 C30.99389294 77.56073248 27.17081344 77.56018866 23.34729004 77.56693745 C20.40819282 77.57027868 17.46918572 77.56364446 14.53010559 77.55380821 C13.1203 77.54995858 11.71048439 77.54880702 10.30067444 77.55039406 C8.33063001 77.55076483 6.36059885 77.53666566 4.39060974 77.52189636 C2.70874573 77.51498528 2.70874573 77.51498528 0.99290466 77.50793457 C-1.77735901 77.24723816 -1.77735901 77.24723816 -4.77735901 75.24723816 C-5.15158081 72.24882507 -5.15158081 72.24882507 -5.14967346 68.35075378 C-5.15332413 67.64166367 -5.15697479 66.93257355 -5.16073608 66.20199585 C-5.16885862 63.85225153 -5.15521804 61.50319317 -5.14064026 59.15348816 C-5.14012185 57.52445984 -5.1406388 55.89543089 -5.14215088 54.2664032 C-5.14206108 50.84992654 -5.13161615 47.43368548 -5.11354065 44.01725769 C-5.09085309 39.6320481 -5.0903085 35.24718296 -5.0970583 30.86193085 C-5.10039551 27.49738997 -5.09377288 24.13292802 -5.08392906 20.7684021 C-5.08007249 19.15122897 -5.07893073 17.53404707 -5.08051491 15.91687012 C-5.08088467 13.6589833 -5.06829097 11.40154252 -5.05201721 9.14372253 C-5.04740982 7.85735901 -5.04280243 6.57099548 -5.03805542 5.24565125 C-4.69305514 1.27761287 -3.99883788 0.35597318 0 0 Z M15.22264099 4.24723816 C14.89264099 8.20723816 14.56264099 12.16723816 14.22264099 16.24723816 C6.30264099 16.74223816 6.30264099 16.74223816 -1.77735901 17.24723816 C-1.80199857 25.0617703 -1.82019006 32.87628004 -1.83229065 40.69084167 C-1.83733284 43.35165297 -1.84416637 46.01246148 -1.85279846 48.67326355 C-1.86486909 52.48829332 -1.8705883 56.3032866 -1.87501526 60.11833191 C-1.88017654 61.31622849 -1.88533783 62.51412506 -1.89065552 63.74832153 C-1.89073105 64.84938736 -1.89080658 65.95045319 -1.8908844 67.08488464 C-1.89310501 68.05973312 -1.89532562 69.0345816 -1.89761353 70.03897095 C-2.02517486 72.22195932 -2.02517486 72.22195932 -0.77735901 73.24723816 C1.11962948 73.3463961 3.02032886 73.3752313 4.91990662 73.37663269 C6.13786926 73.37978485 7.35583191 73.38293701 8.61070251 73.38618469 C9.95009904 73.38439491 11.28949523 73.38234396 12.62889099 73.38005066 C13.99270139 73.38072376 15.35651167 73.38169383 16.72032166 73.38294983 C19.5819462 73.38442654 22.44353959 73.38227313 25.30516052 73.37760925 C28.98082713 73.37191196 32.65642073 73.37519112 36.33208466 73.38118172 C39.14926203 73.38478807 41.96642197 73.38364841 44.78359985 73.38105392 C46.13924162 73.38038486 47.49488495 73.38121237 48.8505249 73.38353348 C50.74214143 73.38606117 52.63376348 73.3815283 54.52537537 73.37663269 C55.603797 73.3758371 56.68221863 73.3750415 57.7933197 73.3742218 C60.17133279 73.52162362 60.17133279 73.52162362 61.22264099 72.24723816 C61.32208071 70.16648407 61.35063695 68.08231968 61.35203552 65.99919128 C61.35378784 65.34716232 61.35554016 64.69513336 61.35734558 64.02334595 C61.36176303 61.85836663 61.35882651 59.69346837 61.35545349 57.52848816 C61.35612656 56.03015629 61.35709661 54.53182453 61.35835266 53.03349304 C61.35982949 49.88939883 61.35767557 46.74533298 61.35301208 43.60124207 C61.3473148 39.56237277 61.35059388 35.52356992 61.35658455 31.48470306 C61.36019058 28.38958736 61.35905139 25.29448751 61.35645676 22.19937134 C61.3557876 20.70975741 61.35661551 19.22014206 61.35893631 17.73052979 C61.36146352 15.65207581 61.35762132 13.57373085 61.35203552 11.49528503 C61.35123993 10.31027405 61.35044434 9.12526306 61.34962463 7.90434265 C61.52488972 5.32530476 61.52488972 5.32530476 60.22264099 4.24723816 C58.81039053 4.15436555 57.39355165 4.12977044 55.97825623 4.13371277 C54.62696877 4.13382607 54.62696877 4.13382607 53.24838257 4.13394165 C51.77964439 4.14168358 51.77964439 4.14168358 50.28123474 4.14958191 C49.28382767 4.15099686 48.28642059 4.1524118 47.25878906 4.15386963 C44.05920976 4.15948702 40.8596993 4.17204245 37.66014099 4.18473816 C35.49673054 4.18975092 33.333319 4.19431421 31.16990662 4.19841003 C25.8541247 4.2094621 20.53839454 4.22673837 15.22264099 4.24723816 Z " fill="#287B51" transform="translate(32.77735900878906,-0.2472381591796875)"/>
<path d="M0 0 C2.97 0 5.94 0 9 0 C9.00586624 0.71996658 9.01173248 1.43993317 9.01777649 2.18171692 C9.07566863 8.96513026 9.14772514 15.74826098 9.23571491 22.53134632 C9.28045208 26.0186768 9.31970032 29.50588957 9.34643555 32.9934082 C9.37740851 37.00241787 9.43219816 41.01079367 9.48828125 45.01953125 C9.49467117 46.27272659 9.5010611 47.52592194 9.50764465 48.8170929 C9.53733589 50.55855843 9.53733589 50.55855843 9.56762695 52.33520508 C9.57873001 53.35890701 9.58983307 54.38260895 9.60127258 55.43733215 C9.81569285 58.00316616 9.81569285 58.00316616 11.22460938 59.82702637 C13.544957 61.36004482 15.06436432 61.39671419 17.83862305 61.43237305 C18.8194133 61.45216721 19.80020355 61.47196136 20.81071472 61.49235535 C21.86704605 61.49874527 22.92337738 61.50513519 24.01171875 61.51171875 C25.09508011 61.52966995 26.17844147 61.54762115 27.29463196 61.56611633 C30.75888157 61.62034985 34.22299238 61.65415744 37.6875 61.6875 C40.03452458 61.72066149 42.38153081 61.75515004 44.72851562 61.79101562 C50.48555262 61.87608374 56.2426073 61.94437832 62 62 C62 64.31 62 66.62 62 69 C41.54 69 21.08 69 0 69 C0 46.23 0 23.46 0 0 Z " fill="#FBFDF4" transform="translate(18,15)"/>
<path d="M0 0 C0.33 0 0.66 0 1 0 C1 22.77 1 45.54 1 69 C0.67 69 0.34 69 0 69 C0 49.86 0 30.72 0 11 C-2.97 11 -5.94 11 -9 11 C-9 33.77 -9 56.54 -9 80 C11.46 80 31.92 80 53 80 C53 77.69 53 75.38 53 73 C54.98 73 56.96 73 59 73 C58.57576756 74.46224799 58.13509755 75.91973412 57.6875 77.375 C57.44386719 78.18710938 57.20023437 78.99921875 56.94921875 79.8359375 C56 82 56 82 53 84 C45.88382624 85.1333182 38.85941549 85.11421487 31.66796875 85.01953125 C30.51379959 85.00540695 29.35963043 84.99128265 28.17048645 84.97673035 C25.745853 84.94378632 23.32126337 84.90746003 20.89672852 84.86791992 C17.18177958 84.81241453 13.46719661 84.78405531 9.75195312 84.75585938 C7.39059922 84.72042831 5.02926897 84.68337574 2.66796875 84.64453125 C1.55753708 84.64016556 0.44710541 84.63579987 -0.69697571 84.63130188 C-1.72872421 84.60835556 -2.76047272 84.58540924 -3.82348633 84.56176758 C-4.72899734 84.54986893 -5.63450836 84.53797028 -6.56745911 84.52571106 C-9.88616232 83.80848613 -11.03257025 82.75549853 -13 80 C-13.50120544 76.88169861 -13.50120544 76.88169861 -13.50170898 73.16772461 C-13.50711197 72.48920944 -13.51251495 71.81069427 -13.51808167 71.11161804 C-13.53056245 68.87474597 -13.51408595 66.63916259 -13.49609375 64.40234375 C-13.49624874 62.8458296 -13.49773767 61.28931505 -13.50050354 59.73280334 C-13.50188717 56.47363182 -13.48933472 53.21490057 -13.46655273 49.95581055 C-13.43814415 45.77689687 -13.44091207 41.59871336 -13.45364285 37.41974545 C-13.46059468 34.2069728 -13.4528169 30.99436918 -13.44038582 27.78161812 C-13.43586813 26.24063324 -13.4355373 24.69963025 -13.43945122 23.15864372 C-13.44235931 21.00634365 -13.42587855 18.85505336 -13.40405273 16.70288086 C-13.39864975 15.47806503 -13.39324677 14.25324921 -13.38768005 12.99131775 C-13 10 -13 10 -11.61610413 8.11305237 C-9.49569884 6.65267485 -7.86629003 6.49755725 -5.3125 6.3125 C-4.50425781 6.24675781 -3.69601563 6.18101563 -2.86328125 6.11328125 C-1.94095703 6.05720703 -1.94095703 6.05720703 -1 6 C-0.67 4.02 -0.34 2.04 0 0 Z " fill="#E4BD47" transform="translate(27,4)"/>
<path d="M0 0 C0.33 0 0.66 0 1 0 C1 2.64 1 5.28 1 8 C-3.455 8.495 -3.455 8.495 -8 9 C-8 31.11 -8 53.22 -8 76 C12.13 76 32.26 76 53 76 C53.33 74.35 53.66 72.7 54 71 C55.32 71 56.64 71 58 71 C58.18311068 75.0284349 57.94158017 77.48375245 56 81 C47.1511761 81.02312589 38.30236253 81.04091634 29.45351505 81.05181217 C25.34505715 81.05704046 21.23661986 81.06413713 17.12817383 81.07543945 C13.16653172 81.08627025 9.20490948 81.09227724 5.24325371 81.09487724 C3.72851689 81.09673114 2.21378121 81.1003511 0.69905281 81.10573006 C-1.41541813 81.11294307 -3.52980594 81.11399083 -5.64428711 81.11352539 C-7.45297523 81.11685631 -7.45297523 81.11685631 -9.29820251 81.12025452 C-12 81 -12 81 -13 80 C-13.12081861 77.71599397 -13.17030365 75.42820126 -13.19287109 73.14111328 C-13.20104858 72.42402191 -13.20922607 71.70693054 -13.21765137 70.96810913 C-13.24254619 68.58551888 -13.25903088 66.20298832 -13.2734375 63.8203125 C-13.27876118 63.00856441 -13.28408485 62.19681633 -13.28956985 61.36046982 C-13.31631813 57.06470431 -13.33568834 52.76896806 -13.35009766 48.47314453 C-13.36675775 44.02835231 -13.41154122 39.58429984 -13.4624691 35.13978767 C-13.49606973 31.72890335 -13.50766708 28.3181962 -13.51332474 24.90716171 C-13.52005633 23.26842464 -13.53532779 21.62969999 -13.55921555 19.9911232 C-13.59072147 17.69935491 -13.59092733 15.40960239 -13.58349609 13.11767578 C-13.59158295 11.81275177 -13.5996698 10.50782776 -13.60800171 9.1633606 C-13 6 -13 6 -10.60342407 4.07345581 C-6.81429358 2.51110406 -4.06527353 2.79329118 0 3 C0 2.01 0 1.02 0 0 Z " fill="#1C6DD4" transform="translate(13,17)"/>
<path d="M0 0 C4.29 0 8.58 0 13 0 C13 6.27 13 12.54 13 19 C15.64 19 18.28 19 21 19 C18.10349478 23.4530384 15.01187281 27.68387273 11.75 31.875 C11.29109375 32.46796875 10.8321875 33.0609375 10.359375 33.671875 C9.24136829 35.115967 8.12093832 36.5581824 7 38 C3.17242836 34.33104845 -0.11102466 30.47120452 -3.3125 26.25 C-3.76689453 25.66089844 -4.22128906 25.07179688 -4.68945312 24.46484375 C-8 20.13375235 -8 20.13375235 -8 19 C-5.36 19 -2.72 19 0 19 C0 12.73 0 6.46 0 0 Z " fill="#16814C" transform="translate(57,19)"/>
<path d="M0 0 C1.5921785 0.00666183 1.5921785 0.00666183 3.21652222 0.01345825 C4.41761627 0.01360931 5.61871033 0.01376038 6.85620117 0.01391602 C8.15830536 0.02423859 9.46040955 0.03456116 10.80197144 0.04519653 C12.14432566 0.04892627 13.48668261 0.05177343 14.82904053 0.05377197 C18.36367294 0.06141159 21.89814122 0.08106273 25.43270874 0.10317993 C29.03884663 0.12363138 32.64501103 0.13277218 36.25119019 0.14285278 C43.32808029 0.16430843 50.4048589 0.19844824 57.48165894 0.24050903 C57.48165894 1.23050903 57.48165894 2.22050903 57.48165894 3.24050903 C43.62165894 3.57050903 29.76165894 3.90050903 15.48165894 4.24050903 C15.15165894 7.87050903 14.82165894 11.50050903 14.48165894 15.24050903 C8.54165894 15.57050903 2.60165894 15.90050903 -3.51834106 16.24050903 C-4.21737738 12.74532747 -4.67637689 10.02388825 -4.70584106 6.55300903 C-4.72002075 5.78601685 -4.73420044 5.01902466 -4.74880981 4.22879028 C-4.3738944 0.99435048 -3.12856542 0.29878727 0 0 Z " fill="#15814A" transform="translate(32.518341064453125,-0.240509033203125)"/>
<path d="M0 0 C4.29 0 8.58 0 13 0 C13 6.27 13 12.54 13 19 C15.64 19 18.28 19 21 19 C19.68862624 21.0174981 18.35470889 23.01170419 17 25 C16.52949219 25.70769531 16.05898437 26.41539063 15.57421875 27.14453125 C11.64850295 32.77443376 11.64850295 32.77443376 8.125 34 C7.42375 34 6.7225 34 6 34 C5.67 32.35 5.34 30.7 5 29 C4.34 29 3.68 29 3 29 C3 27 3 27 5 25 C5 24.34 5 23.68 5 23 C6.98 22.01 8.96 21.02 11 20 C10.85978195 17.35375716 10.71310224 14.70815422 10.5625 12.0625 C10.52318359 11.30775391 10.48386719 10.55300781 10.44335938 9.77539062 C10.55961976 6.08055813 10.55961976 6.08055813 9 3 C6.69 2.67 4.38 2.34 2 2 C2.33 7.94 2.66 13.88 3 20 C0.69 20 -1.62 20 -4 20 C-3.67 21.65 -3.34 23.3 -3 25 C-4.68762851 23.3545622 -6.3540349 21.68711423 -8 20 C-8 19.67 -8 19.34 -8 19 C-5.36 19 -2.72 19 0 19 C0 12.73 0 6.46 0 0 Z " fill="#318D5F" transform="translate(57,19)"/>
<path d="M0 0 C0.33 0 0.66 0 1 0 C1 2.64 1 5.28 1 8 C-2.63 8.33 -6.26 8.66 -10 9 C-10 28.8 -10 48.6 -10 69 C-10.99 69 -11.98 69 -13 69 C-13.11580043 60.83772403 -13.20466639 52.67579062 -13.25906086 44.51289654 C-13.28516647 40.72257687 -13.32057991 36.93281872 -13.37719727 33.14282227 C-13.43148603 29.48585805 -13.46141327 25.8294342 -13.47438622 22.17209816 C-13.48363205 20.77615664 -13.5016876 19.38024504 -13.52865028 17.98453331 C-13.56488701 16.03124153 -13.5670419 14.07740708 -13.56762695 12.1237793 C-13.57873001 11.0112529 -13.58983307 9.8987265 -13.60127258 8.75248718 C-13 6 -13 6 -10.60441589 4.13557434 C-6.8149577 2.48329926 -4.09592653 2.79173255 0 3 C0 2.01 0 1.02 0 0 Z " fill="#2078E2" transform="translate(13,17)"/>
<path d="M0 0 C4.875 0.875 4.875 0.875 6 2 C6.09432985 4.20867831 6.11742431 6.42041521 6.11352539 8.63110352 C6.11367142 9.32375305 6.11381744 10.01640259 6.1139679 10.7300415 C6.11326874 13.02969446 6.10547628 15.32926737 6.09765625 17.62890625 C6.09579208 19.21931412 6.09436817 20.80972257 6.09336853 22.40013123 C6.08954329 26.5939593 6.07971295 30.78775295 6.06866455 34.98156738 C6.05845057 39.25788914 6.05387094 43.53421644 6.04882812 47.81054688 C6.03809069 56.20704708 6.02101419 64.60351926 6 73 C5.01 73 4.02 73 3 73 C3 49.57 3 26.14 3 2 C2.01 2 1.02 2 0 2 C0 1.34 0 0.68 0 0 Z " fill="#14844B" transform="translate(92,1)"/>
<path d="M0 0 C9.57 0 19.14 0 29 0 C29 1.98 29 3.96 29 6 C19.43 6 9.86 6 0 6 C0 4.02 0 2.04 0 0 Z " fill="#2F875B" transform="translate(49,60)"/>
<path d="M0 0 C2.05078125 0.03255208 4.1015625 0.06510417 6.15234375 0.09765625 C6.15234375 0.42765625 6.15234375 0.75765625 6.15234375 1.09765625 C3.84234375 1.42765625 1.53234375 1.75765625 -0.84765625 2.09765625 C-0.84765625 23.54765625 -0.84765625 44.99765625 -0.84765625 67.09765625 C18.29234375 67.09765625 37.43234375 67.09765625 57.15234375 67.09765625 C57.81234375 65.77765625 58.47234375 64.45765625 59.15234375 63.09765625 C59.48234375 63.09765625 59.81234375 63.09765625 60.15234375 63.09765625 C60.19506475 64.7637753 60.19298207 66.4314851 60.15234375 68.09765625 C58.38510564 69.86489436 55.84915535 69.22528458 53.45507812 69.22705078 C52.23711548 69.23020294 51.01915283 69.2333551 49.76428223 69.23660278 C48.4248857 69.234813 47.08548951 69.23276205 45.74609375 69.23046875 C44.38228335 69.23114185 43.01847307 69.23211192 41.65466309 69.23336792 C38.79303854 69.23484463 35.93144515 69.23269122 33.06982422 69.22802734 C29.39415761 69.22233006 25.71856401 69.22560921 22.04290009 69.23159981 C19.22572271 69.23520616 16.40856277 69.2340665 13.59138489 69.23147202 C12.23574312 69.23080295 10.88009979 69.23163046 9.52445984 69.23395157 C7.63284331 69.23647926 5.74122126 69.23194639 3.84960938 69.22705078 C2.23197693 69.22585739 2.23197693 69.22585739 0.58166504 69.22463989 C-1.84765625 69.09765625 -1.84765625 69.09765625 -2.84765625 68.09765625 C-2.94709597 66.01690216 -2.97565221 63.93273777 -2.97705078 61.84960938 C-2.9788031 61.19758041 -2.98055542 60.54555145 -2.98236084 59.87376404 C-2.98677829 57.70878472 -2.98384176 55.54388646 -2.98046875 53.37890625 C-2.98114182 51.88057438 -2.98211187 50.38224262 -2.98336792 48.88391113 C-2.98484475 45.73981692 -2.98269083 42.59575108 -2.97802734 39.45166016 C-2.97233005 35.41279086 -2.97560914 31.37398801 -2.98159981 27.33512115 C-2.98520583 24.24000545 -2.98406664 21.1449056 -2.98147202 18.04978943 C-2.98080286 16.5601755 -2.98163077 15.07056015 -2.98395157 13.58094788 C-2.98647878 11.5024939 -2.98263658 9.42414894 -2.97705078 7.34570312 C-2.97625519 6.16069214 -2.97545959 4.97568115 -2.97463989 3.75476074 C-2.8022773 0.14811191 -2.8022773 0.14811191 0 0 Z " fill="#EAFEFF" transform="translate(6.84765625,24.90234375)"/>
<path d="M0 0 C19.8 0 39.6 0 60 0 C60 0.99 60 1.98 60 3 C29.805 2.505 29.805 2.505 -1 2 C-0.67 1.34 -0.34 0.68 0 0 Z " fill="#1D7C4C" transform="translate(33,74)"/>
<path d="M0 0 C0.6484375 1.83203125 0.6484375 1.83203125 1 4 C-1.375 6.6875 -1.375 6.6875 -4 9 C-4.33 9.33 -4.66 9.66 -5 10 C-1.04 10.33 2.92 10.66 7 11 C7 11.66 7 12.32 7 13 C-2.57 13 -12.14 13 -22 13 C-22 12.67 -22 12.34 -22 12 C-18.04 12 -14.08 12 -10 12 C-9.67 10.68 -9.34 9.36 -9 8 C-8.01 8 -7.02 8 -6 8 C-4.3122919 6.23598598 -4.3122919 6.23598598 -2.8125 4 C-2.28269531 3.2575 -1.75289062 2.515 -1.20703125 1.75 C-0.80871094 1.1725 -0.41039063 0.595 0 0 Z " fill="#C3E3D4" transform="translate(71,47)"/>
<path d="M0 0 C3.63 0 7.26 0 11 0 C10.67 0.66 10.34 1.32 10 2 C7.03 1.67 4.06 1.34 1 1 C1.33 6.94 1.66 12.88 2 19 C-0.31 19 -2.62 19 -5 19 C-4.67 20.65 -4.34 22.3 -4 24 C-5.68762851 22.3545622 -7.3540349 20.68711423 -9 19 C-9 18.67 -9 18.34 -9 18 C-6.03 18 -3.06 18 0 18 C0 12.06 0 6.12 0 0 Z " fill="#24784F" transform="translate(58,20)"/>
<path d="M0 0 C0.33 0 0.66 0 1 0 C1.042721 1.66611905 1.04063832 3.33382885 1 5 C0 6 0 6 -3.05102539 6.11352539 C-4.39991271 6.11336634 -5.74880614 6.10767612 -7.09765625 6.09765625 C-8.16094398 6.09553383 -8.16094398 6.09553383 -9.24571228 6.09336853 C-11.51801712 6.08775443 -13.79022475 6.07519963 -16.0625 6.0625 C-17.59960796 6.05748681 -19.13671745 6.05292359 -20.67382812 6.04882812 C-24.44925642 6.03778042 -28.22461171 6.02050641 -32 6 C-32 5.67 -32 5.34 -32 5 C-17.15 4.505 -17.15 4.505 -2 4 C-1.34 2.68 -0.68 1.36 0 0 Z " fill="#E2F7FD" transform="translate(66,88)"/>
<path d="M0 0 C1.98 0 3.96 0 6 0 C5.57742724 1.4835001 5.13643678 2.96176424 4.6875 4.4375 C4.44386719 5.26121094 4.20023437 6.08492188 3.94921875 6.93359375 C3.47935547 7.95646484 3.47935547 7.95646484 3 9 C2.01 9.33 1.02 9.66 0 10 C-1.231394 6.30581799 -0.64432764 3.7943739 0 0 Z " fill="#EFC032" transform="translate(80,77)"/>
<path d="M0 0 C1.8871875 0.0309375 1.8871875 0.0309375 3.8125 0.0625 C3.8125 1.3825 3.8125 2.7025 3.8125 4.0625 C0.1825 4.0625 -3.4475 4.0625 -7.1875 4.0625 C-7.1875 3.0725 -7.1875 2.0825 -7.1875 1.0625 C-4.43671116 0.14557039 -2.82801087 -0.04636083 0 0 Z " fill="#2472C0" transform="translate(10.1875,20.9375)"/>
<path d="M0 0 C0.99 0 1.98 0 3 0 C3.33 3.63 3.66 7.26 4 11 C3.01 11.33 2.02 11.66 1 12 C0 11 0 11 -0.09765625 8.49609375 C-0.08605469 7.48675781 -0.07445312 6.47742188 -0.0625 5.4375 C-0.05347656 4.42558594 -0.04445312 3.41367188 -0.03515625 2.37109375 C-0.02355469 1.58863281 -0.01195312 0.80617188 0 0 Z " fill="#106CE5" transform="translate(0,86)"/>
<path d="M0 0 C1.32 0 2.64 0 4 0 C4.125 2.875 4.125 2.875 4 6 C3.34 6.66 2.68 7.32 2 8 C1.67 7.34 1.34 6.68 1 6 C0.34 5.67 -0.32 5.34 -1 5 C-0.67 3.35 -0.34 1.7 0 0 Z " fill="#3D83D1" transform="translate(67,88)"/>
<path d="M0 0 C2.64 0 5.28 0 8 0 C4.25 5.875 4.25 5.875 2 7 C2.33 5.35 2.66 3.7 3 2 C2.01 1.67 1.02 1.34 0 1 C0 0.67 0 0.34 0 0 Z " fill="#3A8661" transform="translate(70,38)"/>
<path d="M0 0 C2 0.875 2 0.875 4 2 C4.66 2.33 5.32 2.66 6 3 C4.68 4.32 3.36 5.64 2 7 C0.68 5.02 -0.64 3.04 -2 1 C-1.34 0.67 -0.68 0.34 0 0 Z " fill="#34825E" transform="translate(61,50)"/>
<path d="M0 0 C0.78375 0.04125 1.5675 0.0825 2.375 0.125 C1.385 2.105 0.395 4.085 -0.625 6.125 C-1.945 4.805 -3.265 3.485 -4.625 2.125 C-2.625 0.125 -2.625 0.125 0 0 Z " fill="#1D9257" transform="translate(32.625,-0.125)"/>
<path d="M0 0 C1.98 0 3.96 0 6 0 C5.34 2.64 4.68 5.28 4 8 C3.67 8 3.34 8 3 8 C3 6.02 3 4.04 3 2 C2.01 2 1.02 2 0 2 C0 1.34 0 0.68 0 0 Z " fill="#DDD563" transform="translate(80,77)"/>
<path d="M0 0 C2.64 0 5.28 0 8 0 C6.68 0.33 5.36 0.66 4 1 C4.33 2.65 4.66 4.3 5 6 C3.31237149 4.3545622 1.6459651 2.68711423 0 1 C0 0.67 0 0.34 0 0 Z " fill="#3D8866" transform="translate(49,38)"/>
</svg>
